<!--?xml version="1.0" standalone="no"?-->

<svg version="1.0" xmlns="http://www.w3.org/2000/svg" width="300.000000pt" height="107.000000pt" viewBox="0 0 300.000000 107.000000" preserveAspectRatio="xMidYMid meet">
<g transform="translate(0.000000,107.000000) scale(0.100000,-0.100000)" fill="#090909" stroke="none">
<path class="node" id="node1" d="M415 1063 c-288 -34 -325 -45 -325 -100 0 -26 7 -28 44 -13 46 17
230 50 237 43 3 -5 1 -62 -7 -128 -7 -66 -18 -169 -23 -230 -6 -60 -16 -156
-22 -212 -11 -100 -12 -102 -39 -108 -67 -15 -150 36 -167 103 -3 14 -1 51 5
81 7 30 10 57 7 59 -15 15 -62 1 -86 -26 -74 -83 -25 -230 86 -261 22 -6 70
-11 108 -11 78 0 73 12 56 -137 -10 -89 -9 -98 8 -110 19 -14 73 -8 84 9 4 5
12 58 18 116 20 180 15 167 84 213 75 50 184 154 239 228 22 29 56 88 76 130
65 140 46 248 -54 307 -67 40 -215 61 -329 47z m195 -97 c102 -50 118 -167 42
-319 -22 -45 -62 -109 -89 -141 -49 -61 -119 -123 -128 -114 -3 2 6 92 19 199
14 107 30 239 36 294 7 55 14 103 17 108 6 10 51 -1 103 -27z"></path>
<path class="node" id="node2" d="M1520 1050 c-22 -14 -100 -397 -120 -593 -7 -65 -10 -144 -8 -175 5
-51 2 -62 -25 -104 -33 -51 -84 -85 -111 -75 -24 10 -36 50 -36 125 0 72 22
269 43 392 l13 75 75 5 c66 4 74 7 74 25 0 18 -8 20 -69 23 l-68 3 6 32 c39
193 35 204 -66 165 -28 -10 -29 -13 -49 -130 l-11 -68 -54 0 c-53 0 -54 0 -54
-30 0 -29 1 -30 51 -30 l51 0 -6 -32 c-3 -18 -8 -58 -12 -88 -4 -30 -13 -67
-20 -81 -14 -28 -69 -79 -85 -79 -5 0 -9 25 -9 55 0 62 -26 124 -62 149 -31
22 -74 20 -143 -7 -107 -42 -160 -144 -160 -312 0 -119 26 -178 93 -207 42
-19 47 -19 86 -4 75 29 141 115 167 218 11 42 19 53 50 69 21 10 40 23 44 29
16 25 20 1 20 -113 0 -146 16 -190 78 -221 34 -16 44 -17 79 -7 22 7 60 31 85
54 l44 41 25 -31 c50 -65 130 -64 199 1 l35 33 19 -32 c12 -21 32 -37 55 -45
53 -17 84 2 120 74 l30 58 12 -42 c14 -48 38 -78 74 -92 33 -12 102 14 134 52
l24 30 20 -35 c51 -86 172 -104 267 -39 35 24 35 24 55 4 23 -23 43 -25 58 -7
5 6 27 57 47 112 44 116 92 216 143 292 40 61 52 57 52 -20 0 -58 -28 -117
-81 -169 -35 -35 -37 -40 -28 -70 24 -85 121 -165 183 -153 16 3 44 17 63 31
35 27 88 118 78 134 -12 20 -35 9 -51 -22 -54 -107 -112 -102 -164 15 l-21 48
40 45 c50 57 81 137 81 210 0 45 -4 59 -25 79 -58 59 -114 16 -200 -156 -30
-61 -55 -102 -55 -92 0 10 9 74 20 143 52 331 64 418 64 455 1 35 -2 40 -24
43 -13 2 -41 -1 -61 -7 l-37 -11 -7 -78 c-4 -42 -13 -133 -20 -202 -7 -69 -21
-205 -31 -304 -17 -166 -20 -181 -47 -223 -19 -28 -46 -53 -73 -66 -41 -20
-46 -20 -77 -5 -48 23 -71 75 -75 174 -4 91 24 230 56 273 27 37 49 48 64 33
9 -9 5 -38 -19 -134 -17 -68 -27 -127 -23 -132 16 -17 60 5 85 42 13 20 29 61
36 91 26 122 -26 205 -113 181 -102 -29 -180 -165 -194 -340 -8 -84 -21 -119
-60 -149 -32 -25 -38 -26 -58 -5 -23 22 -21 158 4 286 24 123 24 124 6 131
-20 8 -81 -10 -95 -27 -7 -8 -18 -61 -27 -117 -17 -121 -48 -231 -68 -249 -26
-20 -50 -7 -64 35 -18 53 -9 164 23 292 14 54 25 101 25 105 0 5 -22 8 -50 8
-37 0 -52 -4 -59 -18 -17 -33 -51 -232 -51 -304 0 -75 -21 -127 -61 -149 -50
-26 -76 13 -91 143 l-10 87 46 80 c82 142 117 261 118 397 0 83 -21 154 -53
181 -24 20 -65 32 -79 23z m45 -398 c-8 -33 -24 -80 -35 -104 l-20 -43 4 60
c5 58 40 225 54 255 14 31 12 -111 -3 -168z m-650 -92 c13 -14 20 -41 23 -83
l5 -62 -23 20 c-30 27 -50 68 -50 103 0 46 16 54 45 22z m-71 -168 c15 -11 43
-26 62 -32 39 -13 39 -10 19 -98 -21 -93 -47 -134 -83 -130 -47 5 -67 62 -67
193 0 61 4 119 8 130 8 18 10 17 22 -11 7 -17 25 -40 39 -52z"></path>
</g>
<g transform="translate(0.000000,107.000000) scale(0.100000,-0.100000)" fill="#A0A0A0" stroke="none">







</g>
</svg>